<svg viewBox="0 0 5889.31 3600" xmlns="http://www.w3.org/2000/svg" data-name="Ebene 1" id="Ebene_1">
  <defs>
    <style>
      .cls-1 {
        fill: #b7410e;
      }

      .cls-2 {
        fill: gray;
      }
    </style>
  </defs>
  <rect height="1224" width="115.2" y="2376" x="3484.8" class="cls-1"></rect>
  <rect height="1224" width="115.2" y="0" x="3484.8" class="cls-1"></rect>
  <rect transform="translate(1742.4 1857.6) rotate(-90)" height="3600" width="115.2" y="-1742.4" x="1742.4" class="cls-1"></rect>
  <rect transform="translate(115.2 3600) rotate(180)" height="3600" width="115.2" y="0" x="0" class="cls-1"></rect>
  <rect transform="translate(5342.4 1742.4) rotate(90)" height="3600" width="115.2" y="1742.4" x="1742.4" class="cls-1"></rect>
  <g>
    <g>
      <path d="M3852.12,2637h39.63l61.71,145.54c6.1,14.86,13.33,36.2,13.33,36.2h.77s7.24-21.34,13.33-36.2l61.73-145.54h39.61l21.72,268.98h-37.33l-13.33-169.54c-1.14-16.38-.38-39.62-.38-39.62h-.76s-8.01,24.76-14.49,39.62l-53.71,121.15h-33.52l-53.34-121.15c-6.1-14.47-14.47-40.38-14.47-40.38h-.77s.38,24-.76,40.38l-12.96,169.54h-37.72l21.72-268.98Z" class="cls-2"></path>
      <path d="M4261.68,2785.59h8.38v-3.43c0-31.62-17.91-42.29-42.29-42.29-29.72,0-53.71,18.67-53.71,18.67l-15.24-27.05s27.82-22.86,72.01-22.86c48.77,0,76.2,26.67,76.2,75.44v121.92h-34.29v-18.29c0-8.76.77-15.24.77-15.24h-.77s-15.61,38.09-61.71,38.09c-33.15,0-65.53-20.19-65.53-58.67,0-63.62,83.82-66.29,116.2-66.29ZM4219.01,2880.83c31.24,0,51.43-32.76,51.43-61.34v-6.1h-9.52c-27.82,0-78.1,1.9-78.1,36.57,0,15.62,12.19,30.86,36.19,30.86Z" class="cls-2"></path>
      <path d="M4362.29,2637h36.95v147.06h27.05l52.59-70.86h41.91l-64.01,84.96v.76l71.24,107.06h-43.05l-57.91-90.67h-27.82v90.67h-36.95v-268.98Z" class="cls-2"></path>
      <path d="M4642.68,2708.62c54.48,0,83.44,40.39,83.44,90.3,0,4.95-1.14,16-1.14,16h-140.59c1.91,42.29,32.01,63.62,66.29,63.62s57.15-22.47,57.15-22.47l15.24,27.05s-28.57,27.43-74.67,27.43c-60.57,0-102.11-43.81-102.11-100.96,0-61.34,41.54-100.96,96.39-100.96ZM4688.41,2787.11c-1.15-33.15-21.72-49.15-46.48-49.15-28.19,0-51.05,17.52-56.38,49.15h102.87Z" class="cls-2"></path>
      <path d="M4771.09,2713.2h35.81v33.52c0,8-.76,14.48-.76,14.48h.76c8.77-28.2,31.24-50.29,60.96-50.29,4.96,0,9.52.76,9.52.76v36.57s-4.95-1.14-10.67-1.14c-23.63,0-45.33,16.76-54.1,45.34-3.44,11.04-4.58,22.86-4.58,34.66v78.87h-36.95v-192.78Z" class="cls-2"></path>
      <path d="M4916.25,2856.07s21.72,22.47,55.24,22.47c16,0,32.01-8.38,32.01-24,0-35.43-99.06-28.19-99.06-91.06,0-35.05,31.24-54.86,69.71-54.86,42.29,0,62.1,21.34,62.1,21.34l-14.86,27.81s-17.14-17.15-47.62-17.15c-16,0-31.61,6.86-31.61,23.62,0,34.67,99.06,27.05,99.06,90.3,0,32-27.43,56-69.73,56-47.24,0-73.15-28.19-73.15-28.19l17.91-26.29Z" class="cls-2"></path>
      <path d="M5084.65,2713.2h33.91v16.38c0,7.62-.77,14.1-.77,14.1h.77s16.38-35.06,64.77-35.06c51.82,0,84.57,41.15,84.57,100.96s-36.95,100.96-87.24,100.96c-42.29,0-59.06-31.62-59.06-31.62h-.76s.76,6.86.76,16.76v86.49h-36.95v-268.98ZM5174.94,2878.93c30.47,0,55.62-25.15,55.62-68.96s-22.47-68.96-54.48-68.96c-28.96,0-55.62,20.19-55.62,69.34,0,34.29,19.05,68.58,54.48,68.58Z" class="cls-2"></path>
      <path d="M5413.82,2785.59h8.38v-3.43c0-31.62-17.91-42.29-42.29-42.29-29.72,0-53.71,18.67-53.71,18.67l-15.24-27.05s27.82-22.86,72.01-22.86c48.77,0,76.2,26.67,76.2,75.44v121.92h-34.29v-18.29c0-8.76.77-15.24.77-15.24h-.77s-15.61,38.09-61.71,38.09c-33.15,0-65.53-20.19-65.53-58.67,0-63.62,83.82-66.29,116.2-66.29ZM5371.16,2880.83c31.24,0,51.43-32.76,51.43-61.34v-6.1h-9.52c-27.82,0-78.1,1.9-78.1,36.57,0,15.62,12.19,30.86,36.19,30.86Z" class="cls-2"></path>
      <path d="M5603.95,2708.62c48.38,0,72.38,28.2,72.38,28.2l-17.52,25.91s-20.58-22.1-53.34-22.1c-38.86,0-67.05,28.95-67.05,68.58s28.19,69.34,68.2,69.34c35.81,0,59.43-25.9,59.43-25.9l14.86,27.05s-26.68,30.86-76.96,30.86c-60.59,0-103.25-43.05-103.25-100.96s42.66-100.96,103.25-100.96Z" class="cls-2"></path>
      <path d="M5805.87,2708.62c54.48,0,83.44,40.39,83.44,90.3,0,4.95-1.14,16-1.14,16h-140.59c1.91,42.29,32.01,63.62,66.29,63.62s57.15-22.47,57.15-22.47l15.24,27.05s-28.57,27.43-74.67,27.43c-60.57,0-102.11-43.81-102.11-100.96,0-61.34,41.54-100.96,96.39-100.96ZM5851.6,2787.11c-1.15-33.15-21.72-49.15-46.48-49.15-28.19,0-51.05,17.52-56.38,49.15h102.87Z" class="cls-2"></path>
    </g>
    <g>
      <path d="M3830.4,3042h82.29c28.19,0,40.01,2.29,50.29,6.1,27.43,10.29,45.34,37.34,45.34,72.77s-19.05,63.24-48.39,72.76v.76s3.05,3.43,8,12.19l57.15,104.39h-42.66l-56.77-107.06h-57.53v107.06h-37.72v-268.98ZM3922.21,3171.15c29.34,0,47.62-18.67,47.62-48.77,0-19.81-7.62-33.91-21.33-41.52-7.24-3.81-16-6.1-36.96-6.1h-43.43v96.38h54.1Z" class="cls-2"></path>
      <path d="M4156.9,3113.62c57.53,0,104.01,42.29,104.01,100.58s-46.47,101.34-104.01,101.34-104.01-42.67-104.01-101.34,46.48-100.58,104.01-100.58ZM4156.9,3283.54c36.57,0,66.29-28.95,66.29-69.34s-29.72-68.58-66.29-68.58-66.29,28.57-66.29,68.58,30.1,69.34,66.29,69.34Z" class="cls-2"></path>
      <path d="M4307.02,3261.07s21.72,22.47,55.24,22.47c16,0,32.01-8.38,32.01-24,0-35.43-99.06-28.19-99.06-91.06,0-35.05,31.24-54.86,69.71-54.86,42.29,0,62.1,21.34,62.1,21.34l-14.86,27.81s-17.14-17.15-47.62-17.15c-16,0-31.61,6.86-31.61,23.62,0,34.67,99.06,27.05,99.06,90.3,0,32-27.43,56-69.73,56-47.24,0-73.15-28.19-73.15-28.19l17.91-26.29Z" class="cls-2"></path>
      <path d="M4558.48,3113.62c54.48,0,83.44,40.39,83.44,90.3,0,4.95-1.14,16-1.14,16h-140.59c1.91,42.29,32.01,63.62,66.29,63.62s57.15-22.47,57.15-22.47l15.24,27.05s-28.57,27.43-74.67,27.43c-60.57,0-102.11-43.81-102.11-100.96,0-61.34,41.54-100.96,96.39-100.96ZM4604.21,3192.11c-1.15-33.15-21.72-49.15-46.48-49.15-28.19,0-51.05,17.52-56.39,49.15h102.88Z" class="cls-2"></path>
      <path d="M4686.88,3118.2h35.81v25.52c0,7.62-.76,14.1-.76,14.1h.76c7.63-16.76,30.48-44.2,72.39-44.2,45.33,0,66.29,24.77,66.29,73.91v123.44h-36.96v-115.06c0-27.05-5.72-48.39-36.57-48.39s-52.96,19.43-60.96,47.25c-2.28,7.62-3.05,16.38-3.05,25.9v90.3h-36.95v-192.78Z" class="cls-2"></path>
      <path d="M4916.62,3042h36.95v98.67c0,9.15-.76,16.01-.76,16.01h.76c8.38-18.67,32.77-43.05,71.25-43.05,45.33,0,66.29,24.77,66.29,73.91v123.44h-36.96v-115.06c0-27.05-5.72-48.39-36.57-48.39-28.96,0-52.96,19.81-60.96,47.62-2.28,7.62-3.05,16.38-3.05,25.52v90.3h-36.95v-268.98Z" class="cls-2"></path>
      <path d="M5229.41,3113.62c54.48,0,83.44,40.39,83.44,90.3,0,4.95-1.14,16-1.14,16h-140.59c1.91,42.29,32.01,63.62,66.29,63.62s57.15-22.47,57.15-22.47l15.24,27.05s-28.57,27.43-74.67,27.43c-60.57,0-102.11-43.81-102.11-100.96,0-61.34,41.54-100.96,96.39-100.96ZM5275.14,3192.11c-1.15-33.15-21.72-49.15-46.48-49.15-28.19,0-51.05,17.52-56.38,49.15h102.87Z" class="cls-2"></path>
      <path d="M5357.44,3042h37.33v37.72h-37.33v-37.72ZM5357.82,3118.2h36.95v192.78h-36.95v-192.78Z" class="cls-2"></path>
      <path d="M5452.69,3118.2h35.81v25.52c0,7.62-.76,14.1-.76,14.1h.76c9.14-22.48,36.19-44.2,66.29-44.2,32.38,0,51.43,14.86,57.92,43.82h.76c10.67-23.24,37.33-43.82,68.57-43.82,43.43,0,63.62,24.77,63.62,73.91v123.44h-36.95v-115.44c0-27.05-5.33-48.38-34.29-48.38-27.05,0-47.24,22.86-54.1,49.14-1.91,8.01-2.67,16.77-2.67,26.67v88.01h-36.96v-115.44c0-25.14-3.81-48.38-33.52-48.38-28.19,0-48.01,23.24-55.24,50.67-1.91,7.62-2.29,16.38-2.29,25.15v88.01h-36.95v-192.78Z" class="cls-2"></path>
    </g>
  </g>
  <g>
    <path d="M2548.68,2021.73s78.85,88.01,195.44,88.01c90.3,0,164.59-60.57,164.59-147.44,0-99.44-88.01-148.59-187.45-148.59h-56l-26.29-60.57,176.01-206.88c26.29-30.86,50.29-52.57,50.29-52.57v-2.29s-24,3.43-68.57,3.43h-273.17v-98.29h482.33v72.01l-219.45,252.59c106.3,11.43,236.6,80.01,236.6,236.59,0,138.3-108.58,259.45-274.32,259.45s-261.74-109.72-261.74-109.72l61.73-85.72Z" class="cls-2"></path>
    <g>
      <path d="M1686.85,1396.53h113.15v354.32h418.33v-354.32h113.15v806.93h-113.15v-354.32h-418.33v354.32h-113.15v-806.93Z" class="cls-1"></path>
      <path d="M3554.48,1382.82c194.3,0,293.74,106.29,293.74,106.29l-56.01,84.58s-93.72-88.01-233.16-88.01c-180.58,0-298.31,137.15-298.31,308.6s120.02,318.88,299.45,318.88c152.02,0,249.16-105.15,249.16-105.15l60.59,81.15s-110.86,128.01-313.17,128.01c-242.3,0-412.6-185.16-412.6-421.75s176.01-412.6,410.32-412.6Z" class="cls-1"></path>
      <path d="M4024.25,1396.53h113.15v339.46h120.02l203.45-339.46h124.58l-234.31,382.89v2.29l249.16,421.75h-128.02l-214.87-370.32h-120.02v370.32h-113.15v-806.93Z" class="cls-1"></path>
      <path d="M4736.33,1396.53h468.61v98.29h-355.46v252.59h289.17v98.29h-289.17v259.45h374.9v98.29h-488.04v-806.93Z" class="cls-1"></path>
    </g>
  </g>
</svg>